<svg id="svg19065" xmlns="http://www.w3.org/2000/svg" viewBox="0 0 401.4 382.33"><defs><style>.cls-1{fill:none;stroke:#aaaaaa;stroke-width:1.4px;}.cls-2,.cls-3,.cls-4{isolation:isolate;}.cls-3,.cls-4{font-size:15.35px;fill:#aaaaaa;font-family:HelveticaNeue-Light, Helvetica Neue;}.cls-4{letter-spacing:-0.02em;}</style></defs><title>korf_venn</title><path id="path11857" class="cls-1" d="M367.69,282.08A132.45,132.45,0,1,1,235.24,149.63h0A132.5,132.5,0,0,1,367.69,282.08Z" transform="translate(-34.55 -32.9)"/><path id="path11859" class="cls-1" d="M300.15,166.05A132.45,132.45,0,1,1,167.7,33.6,132.45,132.45,0,0,1,300.15,166.05Z" transform="translate(-34.55 -32.9)"/><path id="path11861" class="cls-1" d="M435.25,166.05A132.45,132.45,0,1,1,302.8,33.6,132.45,132.45,0,0,1,435.25,166.05Z" transform="translate(-34.55 -32.9)"/><g class="cls-2"><text class="cls-3" transform="translate(54.64 116.49)">Resea</text><text class="cls-4" transform="translate(96.16 116.49)">r</text><text class="cls-3" transform="translate(100.72 116.49)">ch</text></g><text class="cls-3" transform="translate(284.66 116.49)">Strategy</text><text class="cls-3" transform="translate(179.44 333.18)">Design</text></svg>